HIERARCHY
ROOT hip
{
  OFFSET 0 0 0
  CHANNELS 6 Xposition Yposition Zposition Zrotation Yrotation Xrotation
  JOINT abdomen
  {
    OFFSET 0 20.6881 -0.73152
    CHANNELS 3 Zrotation Xrotation Yrotation
    JOINT chest
    {
      OFFSET 0 11.7043 -0.48768
      CHANNELS 3 Zrotation Xrotation Yrotation
      JOINT neck
      {
        OFFSET 0 22.1894 -2.19456
        CHANNELS 3 Zrotation Xrotation Yrotation
        JOINT head
        {
          OFFSET -0.24384 7.07133 1.2192
          CHANNELS 3 Zrotation Xrotation Yrotation
          JOINT leftEye
          {
            OFFSET 4.14528 8.04674 8.04672
            CHANNELS 3 Zrotation Xrotation Yrotation
            End Site
            {
              OFFSET 1 0 0
            }
          }
          JOINT rightEye
          {
            OFFSET -3.6576 8.04674 8.04672
            CHANNELS 3 Zrotation Xrotation Yrotation
            End Site
            {
              OFFSET 1 0 0
            }
          }
        }
      }
      JOINT rCollar
      {
        OFFSET -2.68224 19.2634 -4.8768
        CHANNELS 3 Zrotation Xrotation Yrotation
        JOINT rShldr
        {
          OFFSET -8.77824 -1.95073 1.46304
          CHANNELS 3 Zrotation Xrotation Yrotation
          JOINT rForeArm
          {
            OFFSET -28.1742 -1.7115 0.48768
            CHANNELS 3 Zrotation Xrotation Yrotation
            JOINT rHand
            {
              OFFSET -22.5879 0.773209 7.07136
              CHANNELS 3 Zrotation Xrotation Yrotation
              JOINT rThumb1
              {
                OFFSET -1.2192 -0.487915 3.41376
                CHANNELS 3 Zrotation Xrotation Yrotation
                JOINT rThumb2
                {
                  OFFSET -3.37035 -0.52449 3.41376
                  CHANNELS 3 Zrotation Xrotation Yrotation
                  End Site
                  {
                    OFFSET -1.78271 -1.18214 1.43049
                  }
                }
              }
              JOINT rIndex1
              {
                OFFSET -7.75947 0.938293 5.60832
                CHANNELS 3 Zrotation Xrotation Yrotation
                JOINT rIndex2
                {
                  OFFSET -2.54057 -0.884171 1.56538
                  CHANNELS 3 Zrotation Xrotation Yrotation
                  End Site
                  {
                    OFFSET -1.62519 -0.234802 1.16502
                  }
                }
              }
              JOINT rMid1
              {
                OFFSET -8.24714 1.18213 3.41376
                CHANNELS 3 Zrotation Xrotation Yrotation
                JOINT rMid2
                {
                  OFFSET -3.10165 -0.590103 1.0647
                  CHANNELS 3 Zrotation Xrotation Yrotation
                  End Site
                  {
                    OFFSET -2.48547 -0.328903 0.83742
                  }
                }
              }
              JOINT rRing1
              {
                OFFSET -8.82822 0.546677 1.51678
                CHANNELS 3 Zrotation Xrotation Yrotation
                JOINT rRing2
                {
                  OFFSET -2.60934 -0.819778 -0.0198488
                  CHANNELS 3 Zrotation Xrotation Yrotation
                  End Site
                  {
                    OFFSET -2.33842 -0.294052 0.168128
                  }
                }
              }
              JOINT rPinky1
              {
                OFFSET -8.27202 -0.0477905 -0.4584
                CHANNELS 3 Zrotation Xrotation Yrotation
                JOINT rPinky2
                {
                  OFFSET -1.82734 -0.647385 -0.700984
                  CHANNELS 3 Zrotation Xrotation Yrotation
                  End Site
                  {
                    OFFSET -1.69225 -0.51767 -0.607171
                  }
                }
              }
            }
          }
        }
      }
      JOINT lCollar
      {
        OFFSET 2.68224 19.2634 -4.8768
        CHANNELS 3 Zrotation Xrotation Yrotation
        JOINT lShldr
        {
          OFFSET 8.77824 -1.95073 1.46304
          CHANNELS 3 Zrotation Xrotation Yrotation
          JOINT lForeArm
          {
            OFFSET 28.1742 -1.7115 0.48768
            CHANNELS 3 Zrotation Xrotation Yrotation
            JOINT lHand
            {
              OFFSET 22.5879 0.773209 7.07136
              CHANNELS 3 Zrotation Xrotation Yrotation
              JOINT lThumb1
              {
                OFFSET 1.2192 -0.487915 3.41376
                CHANNELS 3 Zrotation Xrotation Yrotation
                JOINT lThumb2
                {
                  OFFSET 3.37035 -0.52449 3.41376
                  CHANNELS 3 Zrotation Xrotation Yrotation
                  End Site
                  {
                    OFFSET 1.78271 -1.18214 1.43049
                  }
                }
              }
              JOINT lIndex1
              {
                OFFSET 7.75947 0.938293 5.60832
                CHANNELS 3 Zrotation Xrotation Yrotation
                JOINT lIndex2
                {
                  OFFSET 2.54057 -0.884171 1.56538
                  CHANNELS 3 Zrotation Xrotation Yrotation
                  End Site
                  {
                    OFFSET 1.62519 -0.234802 1.16502
                  }
                }
              }
              JOINT lMid1
              {
                OFFSET 8.24714 1.18213 3.41376
                CHANNELS 3 Zrotation Xrotation Yrotation
                JOINT lMid2
                {
                  OFFSET 3.10165 -0.590103 1.0647
                  CHANNELS 3 Zrotation Xrotation Yrotation
                  End Site
                  {
                    OFFSET 2.48547 -0.328903 0.83742
                  }
                }
              }
              JOINT lRing1
              {
                OFFSET 8.82822 0.546677 1.51678
                CHANNELS 3 Zrotation Xrotation Yrotation
                JOINT lRing2
                {
                  OFFSET 2.60934 -0.819778 -0.0198488
                  CHANNELS 3 Zrotation Xrotation Yrotation
                  End Site
                  {
                    OFFSET 2.33842 -0.294052 0.168128
                  }
                }
              }
              JOINT lPinky1
              {
                OFFSET 8.27202 -0.0477905 -0.4584
                CHANNELS 3 Zrotation Xrotation Yrotation
                JOINT lPinky2
                {
                  OFFSET 1.82734 -0.647385 -0.700984
                  CHANNELS 3 Zrotation Xrotation Yrotation
                  End Site
                  {
                    OFFSET 1.69225 -0.51767 -0.607171
                  }
                }
              }
            }
          }
        }
      }
    }
  }
  JOINT rButtock
  {
    OFFSET -8.77824 4.35084 1.2192
    CHANNELS 3 Zrotation Xrotation Yrotation
    JOINT rThigh
    {
      OFFSET 0 -1.70687 -2.19456
      CHANNELS 3 Zrotation Xrotation Yrotation
      JOINT rShin
      {
        OFFSET 0 -36.8199 0.73152
        CHANNELS 3 Zrotation Xrotation Yrotation
        JOINT rFoot
        {
          OFFSET 0.73152 -45.1104 -5.12064
          CHANNELS 3 Zrotation Xrotation Yrotation
          End Site
          {
            OFFSET -1.1221 -3.69964 12.103
          }
        }
      }
    }
  }
  JOINT lButtock
  {
    OFFSET 8.77824 4.35084 1.2192
    CHANNELS 3 Zrotation Xrotation Yrotation
    JOINT lThigh
    {
      OFFSET 0 -1.70687 -2.19456
      CHANNELS 3 Zrotation Xrotation Yrotation
      JOINT lShin
      {
        OFFSET 0 -36.8199 0.73152
        CHANNELS 3 Zrotation Xrotation Yrotation
        JOINT lFoot
        {
          OFFSET -0.73152 -45.1104 -5.12064
          CHANNELS 3 Zrotation Xrotation Yrotation
          End Site
          {
            OFFSET 1.1221 -3.69964 12.103
          }
        }
      }
    }
  }
}
MOTION
Frames:	8
Frame Time:	0.00833333
-20.7337 60.1494 11.938 -0.0 -0.0 -0.0 -0.0 0.0 -0.0 0.0 -0.0 0.0 6.374472 18.794252 165.426589 1.637167 19.743741 -166.767529 -0.0 -0.0 0.0 -0.0 -0.0 0.0 -143.620413 38.233348 148.080496 -153.748773 -14.787283 171.174154 74.948895 -68.942136 50.530984 -152.822266 60.665363 129.133106 -5.762555 5.57569 1.158248 -122.035769 -16.258575 108.393624 -50.386399 40.826202 40.02487 -4.539721 13.591045 -8.651496 -167.298223 -27.767532 145.260174 11.686638 -15.700878 0.124485 -145.119721 0.310087 -179.225753 22.508024 40.645394 -4.45693 -145.173549 12.06758 -141.82295 -78.904297 -52.545158 -80.908296 9.651699 34.836178 -11.199233 164.452868 -27.575476 176.062683 -173.409632 82.636669 170.28174 5.985091 18.767906 -0.341139 -174.054717 -22.871225 -88.063103 -3.044363 -63.619799 -1.278164 129.577218 16.761325 -108.78574 36.862898 59.358975 -25.436572 173.037515 -44.087847 -144.930636 6.242721 26.069356 -8.619801 -0.004874 1.770919 -0.556328 166.85448 -27.253202 -175.34435 -12.632866 42.933991 -10.532639 149.837197 11.104545 141.43123 -180.0 75.749642 -0.0 -180.0 75.749642 -0.0 3.093813 0.300867 27.366401 62.382142 -42.624153 -25.866396 -180.0 75.749642 -0.0 -180.0 75.749642 -0.0 -3.093813 0.300867 -27.366401 -62.382142 -42.624153 25.866396
-20.8376 60.7535 13.0968 -0.0 -0.0 -0.0 -0.0 0.0 -0.0 0.0 -0.0 0.0 6.374472 18.794252 165.426589 1.637167 19.743741 -166.767529 -0.0 -0.0 0.0 -0.0 -0.0 0.0 -13.015985 41.250126 14.798846 8.183761 -0.121626 -3.949673 -176.554752 64.026043 144.998638 169.806781 -18.885967 143.53384 -153.679742 8.238919 87.337247 167.930087 -27.556216 87.377336 21.121759 -37.641781 -5.921085 7.031109 0.124109 5.139627 -160.826363 -7.141801 143.31627 -150.955833 19.440001 138.527476 -114.669357 66.731663 135.092548 -19.250673 -58.534794 -40.322755 -157.329919 57.246404 -150.511839 -167.148072 61.94217 -142.934235 -0.163072 -0.990049 0.218539 -0.024735 -12.51458 0.583351 177.366059 7.464302 -144.528658 -169.877018 -18.693599 -143.563112 173.314073 -10.987721 -89.910547 152.694996 4.271728 -79.984891 155.193415 -24.299992 -122.142835 6.327589 41.217766 -7.319851 0.219913 0.63841 -0.122732 -79.708763 -78.175396 -54.354822 0.000142 -0.018512 0.005816 2.858772 26.176805 -4.02978 6.421182 -14.357645 6.037494 86.794336 -54.626742 84.281228 -180.0 75.749642 -0.0 -180.0 75.749642 -0.0 3.093813 0.300867 27.366401 62.382142 -42.624153 -25.866396 -180.0 75.749642 -0.0 -180.0 75.749642 -0.0 -3.093813 0.300867 -27.366401 -62.382142 -42.624153 25.866396
-20.9683 61.365 14.235000000000001 0.0 -0.0 0.0 -0.0 -4.771896 -180.0 0.0 -4.771896 -180.0 0.184738 19.59802 -158.449732 7.630191 18.106594 157.200292 -0.0 -0.0 0.0 -0.0 -0.0 0.0 -9.651699 34.836178 11.199233 -166.360343 0.407181 -178.262587 -18.549442 -77.788695 -54.349038 160.263628 -39.808663 138.025393 -4.034931 3.931563 0.75474 -124.18053 -18.686121 110.248892 -50.386399 40.826202 40.02487 0.728348 2.830139 -10.816513 68.983989 -80.15399 40.578188 -86.025069 60.986081 77.509375 -0.014868 -1.323148 -0.415899 -167.018686 -35.009005 175.602692 0.098846 0.258289 0.091255 -44.945087 -50.747483 -42.691716 155.504155 -3.514523 -161.838528 -98.113498 -75.898646 -75.658498 105.617499 -87.666817 110.025307 0.296737 0.948714 0.030017 78.030619 38.689342 -42.41267 -76.194259 -49.207482 -28.595162 -73.41997 -73.571281 -26.563334 -16.00123 2.138476 -3.986094 -68.983989 -80.15399 -40.578188 159.673048 5.146307 -138.712292 0.014868 -1.323148 0.415899 -0.089625 0.241632 -0.278441 -0.098846 0.258289 -0.091255 161.916309 55.157098 150.018075 -0.0 0.0 -0.0 -0.0 -0.0 -0.0 7.487188 7.092164 103.147753 6.012151 46.451112 -96.430837 -0.0 0.0 -0.0 -0.0 -0.0 -0.0 5.240399 4.225182 61.482581 88.178547 -75.147257 -20.640488
-21.1012 62.0097 15.410599999999999 0.0 -0.0 0.0 -0.0 -4.771896 -180.0 -0.0 -4.771896 180.0 6.374472 18.794252 165.426589 1.637167 19.743741 -166.767529 -0.0 -0.0 0.0 -0.0 -0.0 0.0 -80.1661 68.371792 83.260848 -155.928939 14.04033 178.185661 134.994606 -86.531236 96.907115 170.616076 -16.637342 143.858436 -171.603563 -9.286185 89.949897 34.42288 -65.825019 27.864448 -50.386399 40.826202 40.02487 -175.572724 -27.037047 120.521899 89.035113 -81.393384 59.759886 12.714867 -24.574963 2.020367 -0.014868 -1.323148 -0.415899 1.579036 -38.498453 -4.262181 -144.260424 9.237701 -141.009589 19.172035 43.366771 6.282716 80.1661 68.371792 -83.260848 -16.633093 26.658323 -0.703998 -1.657972 39.153273 32.498278 -167.744989 -24.285671 -142.587075 78.030619 38.689342 -42.41267 -49.992291 -39.708368 -20.9268 138.493513 4.896353 -114.8648 -26.650341 -22.715209 15.519891 160.889433 -7.337573 -143.345306 177.113313 -49.183293 -140.800118 -0.004873 1.771387 -0.556475 165.866381 -0.915452 -172.225839 -12.252484 41.424931 -10.280249 164.806063 55.429292 146.603781 -0.0 0.0 -0.0 -0.0 -0.0 -0.0 -5.606836 7.304235 -88.749899 11.398367 26.429157 81.074468 -0.0 0.0 -0.0 -0.0 -0.0 -0.0 5.504562 5.125243 69.646537 -151.635021 -8.073651 62.717631
-21.2694 62.62960000000001 16.5904 -0.0 -0.0 -0.0 -0.0 0.0 -0.0 0.0 -0.0 -0.0 11.564694 13.114639 119.862658 -5.564456 16.531397 -120.387494 -0.0 0.0 -0.0 -0.0 0.0 -0.0 -155.504155 -3.514523 161.838528 32.504698 -40.551456 18.735735 103.19629 73.06677 -124.596387 -165.223633 47.241635 138.7424 -15.47521 14.198813 4.248078 -122.629758 -20.574591 105.226406 -77.667448 43.02965 64.538509 -105.887263 58.35303 80.713228 -36.036059 51.723116 29.832321 -16.953273 43.079591 11.038882 -0.014868 -1.323148 -0.415899 1.138715 -52.96071 -6.404099 -149.120208 25.572782 -145.198809 -146.467739 14.670254 -141.824483 155.504155 -3.514523 -161.838528 -12.703764 17.303566 -18.211188 -176.742394 44.853055 176.432911 9.72029 29.104167 -1.506607 -178.045862 -19.289787 -88.93464 150.245001 8.638651 -81.540829 152.315296 -18.947869 -121.430412 148.777534 -12.031313 -120.534648 -0.047552 -0.138632 0.026316 166.803993 -5.681226 -143.409645 -0.004673 0.918035 -0.288384 165.79038 -0.737988 -172.041277 145.543006 13.244722 142.14923 145.803843 13.881134 142.204046 -180.0 75.749642 -0.0 -180.0 75.749642 -0.0 3.093813 0.300867 27.366401 -85.190193 17.212889 19.546985 -180.0 75.749642 -0.0 -180.0 75.749642 -0.0 2.74577 11.919568 137.880989 -102.092902 -27.500825 160.112613
-21.4392 63.2845 17.7857 0.0 -0.0 0.0 -0.0 -0.0 -0.0 -0.0 0.0 -0.0 0.197252 19.600142 -158.522057 7.619752 18.113305 157.271664 -0.0 -0.0 0.0 -0.0 -0.0 0.0 -155.504155 -3.514523 161.838528 -148.865721 16.453231 159.949659 177.149429 -16.417636 143.042962 175.09205 -3.138742 145.098987 -9.681738 9.193547 2.243333 -114.452516 -7.957632 102.395694 2.325555 -3.867927 -1.259147 8.96444 -11.734327 -0.065556 -151.476684 17.84174 137.538824 -160.628138 -5.93181 144.551024 0.000171 0.022623 0.007107 -86.742991 78.748778 89.816682 -144.942232 11.339997 -141.617812 13.219285 24.311571 3.816655 80.1661 68.371792 -83.260848 -17.024001 0.106198 1.031406 -25.514862 81.351693 56.156093 -173.449446 -8.266171 -144.75967 -173.307618 -23.519135 -87.872064 77.142845 12.866722 -23.071436 155.193415 -24.299992 -122.142835 -87.290735 -68.015859 -25.019936 0.219913 0.63841 -0.122732 6.909768 18.461178 -3.579515 -0.000171 0.022623 -0.007107 0.042072 0.555981 -0.065849 80.939074 -51.227554 79.359772 23.178903 -42.961824 24.373841 -0.0 0.0 -0.0 -0.0 -0.0 -0.0 -5.606836 7.304235 -88.749899 11.398367 26.429157 81.074468 -0.0 0.0 -0.0 -0.0 -0.0 -0.0 5.504562 5.125243 69.646537 -151.635021 -8.073651 62.717631
-21.6299 63.93030000000001 18.9987 0.0 -0.0 0.0 -0.0 -0.0 -0.0 -0.0 0.0 -0.0 0.197252 19.600142 -158.522057 7.619752 18.113305 157.271664 -0.0 -0.0 0.0 -0.0 -0.0 0.0 -80.1661 68.371792 83.260848 -72.229525 86.566453 91.742579 -178.515403 16.157592 179.462214 -5.90141 18.519687 0.3229 -167.644598 -5.320739 89.843096 9.227834 -56.336811 14.458802 -19.170572 24.114561 13.380841 -89.686946 53.404881 60.222361 -160.826363 -7.141801 143.31627 -86.612079 63.654706 81.509849 -0.006699 3.47564 1.092469 -0.242767 -0.221063 -0.691087 -149.120208 25.572782 -145.198809 -146.467739 14.670254 -141.824483 80.1661 68.371792 -83.260848 -17.024001 0.106198 1.031406 -25.514862 81.351693 56.156093 -173.449446 -8.266171 -144.75967 -173.307618 -23.519135 -87.872064 77.142845 12.866722 -23.071436 155.193415 -24.299992 -122.142835 -8.744252 24.613526 3.461164 0.219913 0.63841 -0.122732 6.909768 18.461178 -3.579515 -0.000171 0.022623 -0.007107 0.042072 0.555981 -0.065849 80.939074 -51.227554 79.359772 23.178903 -42.961824 24.373841 -0.0 0.0 -0.0 -0.0 -0.0 -0.0 -5.606836 7.304235 -88.749899 11.398367 26.429157 81.074468 -0.0 0.0 -0.0 -0.0 -0.0 -0.0 5.504562 5.125243 69.646537 -151.635021 -8.073651 62.717631
-21.8295 64.5829 20.2258 -0.0 -0.0 -0.0 -0.0 -0.0 -0.0 0.0 0.0 -0.0 11.564694 13.114639 119.862658 -5.564456 16.531397 -120.387494 -0.0 -0.0 0.0 -0.0 -0.0 0.0 -143.620413 38.233348 148.080496 -153.748773 -14.787283 171.174154 74.948895 -68.942136 50.530984 -152.822266 60.665363 129.133106 4.53085 -4.514112 -0.520964 -30.64263 24.86767 24.915704 -140.164771 2.326489 115.87806 3.061335 31.29073 -5.541587 7.904304 -24.807577 -3.013399 -164.72711 -0.316099 141.408638 0.000474 0.063775 0.020036 -165.740003 -0.979466 171.909821 25.916531 79.094076 10.831563 -77.289511 -51.61536 -75.658525 80.1661 68.371792 -83.260848 -16.926784 14.142456 0.162407 -166.542955 -0.320742 -170.016735 55.511175 71.017399 -38.05393 1.193499 1.174314 -0.1953 -33.330245 -53.648072 17.21976 64.086421 43.039976 -52.301274 109.398939 56.545226 -82.217237 0.057679 0.167876 -0.032027 -8.313361 -25.437305 1.537877 145.119721 0.310087 179.225753 42.718922 87.623335 -66.244198 144.78382 10.845923 141.476964 23.520452 -40.627183 27.323708 -180.0 75.749642 -0.0 -180.0 75.749642 -0.0 3.093813 0.300867 27.366401 -85.190193 17.212889 19.546985 -180.0 75.749642 -0.0 -180.0 75.749642 -0.0 2.74577 11.919568 137.880989 -102.092902 -27.500825 160.112613
